<svg width="290" height="290" fill="none" xmlns="http://www.w3.org/2000/svg">
  <path
    d="M3.58 145.533L144.467 3.58l28.39 28.177 28.391 28.177-17.397 74.313 45.788-46.135 28.391 28.177 28.39 28.178L145.533 286.42l-28.39-28.177-28.391-28.177 19.158-76.087-47.549 47.909-28.39-28.177L3.58 145.533z"
    fill="#0316BE" fill-opacity=".88" />
  <path
    d="M172.857 31.757L144.467 3.58 3.58 145.533l28.39 28.178M172.857 31.757l-55.714 226.486m55.714-226.486l28.391 28.177-17.397 74.313m-66.708 123.996l-28.391-28.177 19.158-76.087m9.233 104.264l28.39 28.177L286.42 144.467l-28.39-28.178M31.97 173.711l95.099-95.819-19.159 76.087m-75.94 19.732l28.391 28.177 47.549-47.909m150.12-37.69l-93.338 94.045 19.159-76.087m74.179-17.958l-28.391-28.177-45.788 46.135"
    stroke="#A9A9A9" stroke-width="4" />
</svg>